<svg width="512" height="512" viewBox="0 0 512 512" fill="none" xmlns="http://www.w3.org/2000/svg">
<title>Open WebUI</title>
<rect width="512" height="512" fill="#8C4A92" style="fill:#8C4A92;fill:color(display-p3 0.5490 0.2902 0.5725);fill-opacity:1;"/>
<!-- data.bs header: Baselstab | data.bs -->
<rect width="512" height="129" fill="#FFFFFF"/>
<g fill="#000000">
<path d="M106.21 73.11L121.16 73.11C121.53 78.3 126.04 98.5 126.04 98.5 126.04 98.5 120.83 93.84 118.45 91.34 117.13 93.84 113.79 98.5 113.79 98.5 113.79 98.5 110.36 93.79 108.9 91.34 106.37 93.89 101.32 98.5 101.32 98.5 101.32 98.5 105.84 77.67 106.19 73.11ZM106.21 73.11"/>
<path d="M101.76 62.15C98.01 62.89 94 59.97 94.26 54.92 94.55 49.89 98.87 45.58 104.57 44.74 109.6 44 115.32 46.32 117.94 52.06 119.56 55.65 119.54 59.43 120.14 63.25L107.77 63.25C107.95 62.49 108.46 60.33 108.6 58.25 108.88 54.1 105.8 51.88 103.2 52.16 100.79 52.44 99.45 54.13 99.37 55.7 99.33 56.63 99.75 57.86 100.91 57.99 101.6 58.06 102.29 57.56 102.34 56.91 102.37 56.38 101.85 55.91 101.44 55.91 101.11 55.91 100.88 56.17 100.68 56.44 100.44 55.8 101.11 54.12 102.76 54.03 104.22 53.96 105.86 55.29 105.98 57.18 106.16 59.67 104.4 61.66 101.76 62.15ZM101.76 62.15"/>
<path d="M122.32 70.39L105.54 70.39C104.99 70.39 104.57 70.81 104.57 71.32 104.57 71.83 105.08 72.25 105.63 72.25L122.22 72.25C122.76 72.25 123.27 71.83 123.27 71.32 123.27 70.81 122.85 70.39 122.31 70.39ZM122.32 70.39"/>
<path d="M121.27 64.07L106.09 64.07C105.56 64.07 105.03 64.49 105.03 65 105.03 65.53 105.47 65.95 106 65.95L121.36 65.95C121.88 65.95 122.32 65.53 122.32 65 122.32 64.49 121.8 64.07 121.27 64.07ZM121.27 64.07"/>
<path d="M123.38 66.73L104.41 66.73C103.61 66.73 102.87 67.34 102.87 68.14 102.87 68.91 103.61 69.54 104.41 69.54L123.38 69.54C124.17 69.54 124.91 68.91 124.91 68.14 124.91 67.34 124.17 66.73 123.38 66.73ZM123.38 66.73"/>
<rect x="144" y="37" width="3" height="69"/>
<path d="M180.45 95.08Q176.39 95.08 173.12 92.98 169.85 90.88 167.93 86.79 166 82.69 166 76.73 166 70.61 167.98 66.54 169.97 62.47 173.25 60.44 176.53 58.41 180.43 58.41 183.42 58.41 185.43 59.42 187.43 60.43 188.67 61.91 189.91 63.4 190.56 64.86L190.86 64.86 190.86 47 200.72 47 200.72 94.5 190.98 94.5 190.98 88.79 190.56 88.79Q189.89 90.28 188.61 91.73 187.34 93.18 185.33 94.13 183.33 95.08 180.45 95.08M183.58 87.22Q187.15 87.22 189.11 84.33 191.07 81.44 191.07 76.69 191.07 71.91 189.12 69.09 187.18 66.27 183.58 66.27 179.92 66.27 178 69.16 176.09 72.05 176.09 76.69 176.09 81.35 178.02 84.28 179.94 87.22 183.58 87.22M218.97 95.17Q213.87 95.17 210.51 92.51 207.15 89.84 207.15 84.55 207.15 80.56 209.02 78.29 210.9 76.01 213.95 74.96 217 73.9 220.53 73.58 225.17 73.12 227.16 72.61 229.16 72.1 229.16 70.38L229.16 70.24Q229.16 68.04 227.78 66.83 226.4 65.62 223.87 65.62 221.2 65.62 219.62 66.78 218.05 67.94 217.54 69.73L208.4 68.99Q209.42 64.12 213.47 61.26 217.51 58.41 223.91 58.41 227.88 58.41 231.34 59.66 234.79 60.92 236.91 63.57 239.04 66.23 239.04 70.47L239.04 94.5 229.67 94.5 229.67 89.56 229.39 89.56Q228.09 92.04 225.5 93.61 222.92 95.17 218.97 95.17M221.8 88.35Q225.05 88.35 227.14 86.46 229.23 84.57 229.23 81.77L229.23 77.99Q228.65 78.38 227.43 78.68 226.21 78.98 224.83 79.2 223.45 79.42 222.36 79.59 219.76 79.96 218.17 81.05 216.59 82.14 216.59 84.23 216.59 86.27 218.06 87.31 219.53 88.35 221.8 88.35M258.96 58.88L265.66 58.88 265.66 66.3 258.96 66.3 258.96 83.55Q258.96 85.59 259.89 86.31 260.82 87.03 262.3 87.03 263 87.03 263.69 86.9 264.39 86.78 264.76 86.71L266.31 94.06Q265.57 94.29 264.22 94.6 262.88 94.92 260.95 94.99 255.57 95.22 252.31 92.66 249.06 90.09 249.08 84.85L249.08 66.3 244.21 66.3 244.21 58.88 249.08 58.88 249.08 50.34 258.96 50.34 258.96 58.88M282.25 95.17Q277.14 95.17 273.78 92.51 270.42 89.84 270.42 84.55 270.42 80.56 272.3 78.29 274.17 76.01 277.22 74.96 280.27 73.9 283.8 73.58 288.44 73.12 290.43 72.61 292.43 72.1 292.43 70.38L292.43 70.24Q292.43 68.04 291.05 66.83 289.67 65.62 287.14 65.62 284.47 65.62 282.9 66.78 281.32 67.94 280.81 69.73L271.67 68.99Q272.69 64.12 276.74 61.26 280.78 58.41 287.19 58.41 291.15 58.41 294.61 59.66 298.06 60.92 300.19 63.57 302.31 66.23 302.31 70.47L302.31 94.5 292.94 94.5 292.94 89.56 292.66 89.56Q291.36 92.04 288.77 93.61 286.19 95.17 282.25 95.17M285.08 88.35Q288.32 88.35 290.41 86.46 292.5 84.57 292.5 81.77L292.5 77.99Q291.92 78.38 290.7 78.68 289.48 78.98 288.1 79.2 286.72 79.42 285.63 79.59 283.03 79.96 281.45 81.05 279.86 82.14 279.86 84.23 279.86 86.27 281.33 87.31 282.8 88.35 285.08 88.35M315.76 95.1Q313.46 95.1 311.82 93.48 310.17 91.86 310.19 89.54 310.17 87.26 311.82 85.64 313.46 84.02 315.76 84.02 317.99 84.02 319.65 85.64 321.3 87.26 321.33 89.54 321.3 91.86 319.65 93.48 317.99 95.1 315.76 95.1M339.35 94.5L329.61 94.5 329.61 47 339.49 47 339.49 64.86 339.79 64.86Q340.46 63.4 341.69 61.91 342.92 60.43 344.94 59.42 346.96 58.41 349.92 58.41 353.84 58.41 357.11 60.44 360.38 62.47 362.37 66.54 364.35 70.61 364.35 76.73 364.35 82.69 362.43 86.79 360.5 90.88 357.23 92.98 353.96 95.08 349.9 95.08 347.03 95.08 345.02 94.13 343.01 93.18 341.75 91.73 340.48 90.28 339.79 88.79L339.35 88.79 339.35 94.5M339.28 76.69Q339.28 81.44 341.24 84.33 343.2 87.22 346.77 87.22 350.41 87.22 352.34 84.28 354.26 81.35 354.26 76.69 354.26 72.05 352.35 69.16 350.43 66.27 346.77 66.27 343.17 66.27 341.23 69.09 339.28 71.91 339.28 76.69M400.56 69.03L391.51 69.59Q391.14 67.87 389.63 66.64 388.12 65.42 385.55 65.42 383.25 65.42 381.66 66.38 380.08 67.34 380.1 68.94 380.08 70.22 381.11 71.1 382.14 71.98 384.62 72.51L391.07 73.81Q401.34 75.92 401.37 83.46 401.37 86.96 399.31 89.61 397.26 92.25 393.69 93.72 390.12 95.2 385.5 95.2 378.43 95.2 374.23 92.24 370.03 89.28 369.34 84.18L379.06 83.67Q379.52 85.85 381.2 86.96 382.88 88.08 385.53 88.08 388.12 88.08 389.71 87.05 391.3 86.03 391.32 84.46 391.25 81.81 386.76 80.91L380.59 79.68Q370.24 77.62 370.29 69.5 370.26 64.35 374.4 61.38 378.54 58.41 385.39 58.41 392.14 58.41 396.02 61.26 399.91 64.12 400.56 69.03"/>
</g>
<!-- app glyph, scaled from the 1024 favicon -->
<g transform="translate(102.4 168.0) scale(0.3)">
<g transform="translate(-102.4 -104) scale(1.2)" stroke-linejoin="miter" stroke-linecap="square">
<path d="M224 220H648C664.6 220 678 233.4 678 250V530C678 546.6 664.6 560 648 560H340L250 650V560H224C207.4 560 194 546.6 194 530V250C194 233.4 207.4 220 224 220Z" stroke="#FDC603" stroke-width="34"/>
<path d="M470 420H800C816.6 420 830 433.4 830 450V710C830 726.6 816.6 740 800 740H770V820L690 740H470C453.4 740 440 726.6 440 710V450C440 433.4 453.4 420 470 420Z" fill="#8C4A92" stroke="#8C4A92" stroke-width="100"/>
<path d="M470 420H800C816.6 420 830 433.4 830 450V710C830 726.6 816.6 740 800 740H770V820L690 740H470C453.4 740 440 726.6 440 710V450C440 433.4 453.4 420 470 420Z" stroke="#FDC603" stroke-width="34"/>
<g fill="#FDC603" style="fill:#FDC603;fill:color(display-p3 0.9922 0.7765 0.0118);fill-opacity:1;">
<circle cx="545" cy="580" r="26"/>
<circle cx="635" cy="580" r="26"/>
<circle cx="725" cy="580" r="26"/>
</g>
</g>
</g>
</svg>
